<svg class="injected-svg" id="svg-de304a35-0571-4c93-a60c-31dffd7cc190" height="50%" width="100%" viewBox="10 80 500 250"
     xmlns="http://www.w3.org/2000/svg">
    <g xmlns="http://www.w3.org/2000/svg" fill="#000000" id="shape-svg">
        <title>Graphic</title>
        <g id="Слой_2" data-name="Слой 2">
            <path transform="translate(100, 100) scale(2.5)" xmlns="http://www.w3.org/2000/svg" style="fill:#010002;" d="M28,14c-5.724,0-7.514,0-8,0l-6-8h-2l2,8H4l-2-4H0v6l2,2h12l-2,8h2l6-8h8c4,0,4-2,4-2   C32,14,28,14,28,14z"/>
            <g id="Слой_1-2" data-name="Слой 1">
                <path transform="translate(73, 187) scale(1,1)"
                      d="M393.43,96.11H0V0H393.43ZM9.52,86.6H383.91V9.52H9.52Z"></path>
            </g>
        </g>
    </g>
    <g xmlns="http://www.w3.org/2000/svg" fill="#000000" id="icon-svg">
        <path transform="translate(372, 92.5) scale(0.5,0.5)"
              d="M 61 20 L 61 27 53 27 L 45 27 45 105 L 45 183 36.500 183 C 28.667 183, 28 183.157, 28 185 C 28 186.981, 28.667 187, 100 187 C 171.333 187, 172 186.981, 172 185 C 172 183.178, 171.333 183, 164.506 183 L 157.012 183 156.756 105.250 L 156.500 27.500 148.750 27.208 L 141 26.916 141 19.958 C 141 13.203, 140.927 13, 138.500 13 C 136.073 13, 136 13.203, 136 19.958 L 136 26.916 128.250 27.208 L 120.500 27.500 120.211 36.250 L 119.922 45 100.461 45 L 81 45 81 36 L 81 27 73 27 L 65 27 65 20 C 65 13.667, 64.810 13, 63 13 C 61.190 13, 61 13.667, 61 20 M 49.244 107.250 L 49.500 182.500 63.250 182.778 L 77 183.056 77 107.528 L 77 32 62.994 32 L 48.987 32 49.244 107.250 M 125 107.500 L 125 183 138.500 183 L 152 183 152 107.500 L 152 32 138.500 32 L 125 32 125 107.500 M 57 49.500 C 57 51.889, 57.267 52, 63 52 C 68.733 52, 69 51.889, 69 49.500 C 69 47.111, 68.733 47, 63 47 C 57.267 47, 57 47.111, 57 49.500 M 132.180 49.250 C 132.471 51.298, 133.039 51.500, 138.500 51.500 C 143.961 51.500, 144.529 51.298, 144.820 49.250 C 145.123 47.111, 144.813 47, 138.500 47 C 132.187 47, 131.877 47.111, 132.180 49.250 M 81.195 54.750 L 81.500 59.500 100.750 59.772 L 120 60.043 120 55.022 L 120 50 100.445 50 L 80.890 50 81.195 54.750 M 57 66.500 C 57 68.889, 57.267 69, 63 69 C 68.733 69, 69 68.889, 69 66.500 C 69 64.111, 68.733 64, 63 64 C 57.267 64, 57 64.111, 57 66.500 M 81.459 65.250 C 81.196 65.938, 81.098 92.600, 81.240 124.500 L 81.500 182.500 100.750 182.772 L 120 183.043 120 123.522 L 120 64 100.969 64 C 86.665 64, 81.818 64.311, 81.459 65.250 M 132.667 64.667 C 132.300 65.033, 132 66.158, 132 67.167 C 132 68.756, 132.864 69, 138.500 69 C 144.767 69, 145 68.910, 145 66.500 C 145 64.119, 144.722 64, 139.167 64 C 135.958 64, 133.033 64.300, 132.667 64.667 M 57 84 C 57 85.778, 57.667 86, 63 86 C 68.333 86, 69 85.778, 69 84 C 69 82.222, 68.333 82, 63 82 C 57.667 82, 57 82.222, 57 84 M 132 84 C 132 85.795, 132.667 86, 138.500 86 C 144.333 86, 145 85.795, 145 84 C 145 82.205, 144.333 82, 138.500 82 C 132.667 82, 132 82.205, 132 84 M 57 101.500 C 57 103.889, 57.267 104, 63 104 C 68.733 104, 69 103.889, 69 101.500 C 69 99.111, 68.733 99, 63 99 C 57.267 99, 57 99.111, 57 101.500 M 132 101.500 C 132 103.910, 132.233 104, 138.500 104 C 144.767 104, 145 103.910, 145 101.500 C 145 99.090, 144.767 99, 138.500 99 C 132.233 99, 132 99.090, 132 101.500 M 57 119 C 57 120.778, 57.667 121, 63 121 C 68.333 121, 69 120.778, 69 119 C 69 117.222, 68.333 117, 63 117 C 57.667 117, 57 117.222, 57 119 M 132 119 C 132 120.795, 132.667 121, 138.500 121 C 144.333 121, 145 120.795, 145 119 C 145 117.205, 144.333 117, 138.500 117 C 132.667 117, 132 117.205, 132 119 M 57 136.500 C 57 138.889, 57.267 139, 63 139 C 68.733 139, 69 138.889, 69 136.500 C 69 134.111, 68.733 134, 63 134 C 57.267 134, 57 134.111, 57 136.500 M 132.180 136.250 C 132.467 138.271, 133.136 138.530, 138.750 138.798 C 144.859 139.089, 145 139.038, 145 136.548 C 145 134.076, 144.804 134, 138.430 134 C 132.190 134, 131.877 134.113, 132.180 136.250 M 57 153.500 C 57 155.889, 57.267 156, 63 156 C 68.733 156, 69 155.889, 69 153.500 C 69 151.111, 68.733 151, 63 151 C 57.267 151, 57 151.111, 57 153.500 M 132.710 151.623 C 132.320 152.014, 132 153.158, 132 154.167 C 132 155.758, 132.866 156, 138.570 156 C 144.810 156, 145.123 155.887, 144.820 153.750 C 144.538 151.769, 143.838 151.465, 138.960 151.206 C 135.913 151.045, 133.101 151.232, 132.710 151.623 M 57 171.500 C 57 173.889, 57.267 174, 63 174 C 68.733 174, 69 173.889, 69 171.500 C 69 169.111, 68.733 169, 63 169 C 57.267 169, 57 169.111, 57 171.500 M 132.180 171.250 C 132.471 173.298, 133.039 173.500, 138.500 173.500 C 143.961 173.500, 144.529 173.298, 144.820 171.250 C 145.123 169.111, 144.813 169, 138.500 169 C 132.187 169, 131.877 169.111, 132.180 171.250"
              stroke="none" fill-rule="evenodd"></path>
    </g>
    <path xmlns="http://www.w3.org/2000/svg" id="SvgjsPath2528992"
          d="M1.54-5.68C2.11-5.98 2.64-6.21 3.52-6.21C4.94-6.21 5.15-5.28 5.15-3.94C4.67-4.29 3.92-4.40 3.36-4.40C1.81-4.40 0.64-3.58 0.64-2.11C0.64-0.72 1.54 0.11 2.85 0.11C4.03 0.11 4.72-0.38 5.15-0.93L5.15 0L6.37 0L6.37-4.42C6.37-6.29 5.65-7.36 3.60-7.36C2.70-7.36 1.84-7.10 1.20-6.70ZM3.30-1.04C2.46-1.04 2-1.49 2-2.18C2-3.01 2.77-3.36 3.54-3.36C4.16-3.36 4.70-3.20 5.15-2.88L5.15-1.97C4.78-1.54 4.24-1.04 3.30-1.04ZM8.51-1.92C8.51-0.53 9.06 0.13 10.14 0.13C10.90 0.13 11.46-0.11 11.84-0.42L11.55-1.39C11.31-1.23 10.99-1.07 10.64-1.07C10.03-1.07 9.79-1.52 9.79-2.50L9.79-11.20L8.51-11.20ZM23.14-7.20L21.84-7.20L20.53-2.74C20.42-2.37 20.32-2 20.24-1.63C20.13-1.98 20.03-2.34 19.90-2.67L18.26-7.20L17.15-7.20L15.52-2.66C15.38-2.26 15.31-1.97 15.22-1.65C15.12-1.98 15.06-2.30 14.94-2.66L13.54-7.20L12.16-7.20L14.54 0.06L15.60 0.06L17.34-4.58C17.47-4.88 17.55-5.17 17.65-5.50C17.73-5.20 17.81-4.91 17.92-4.62L19.71 0.06L20.83 0.06ZM24.83-5.68C25.41-5.98 25.94-6.21 26.82-6.21C28.24-6.21 28.45-5.28 28.45-3.94C27.97-4.29 27.22-4.40 26.66-4.40C25.10-4.40 23.94-3.58 23.94-2.11C23.94-0.72 24.83 0.11 26.14 0.11C27.33 0.11 28.02-0.38 28.45-0.93L28.45 0L29.66 0L29.66-4.42C29.66-6.29 28.94-7.36 26.90-7.36C26-7.36 25.14-7.10 24.50-6.70ZM26.59-1.04C25.76-1.04 25.30-1.49 25.30-2.18C25.30-3.01 26.06-3.36 26.83-3.36C27.46-3.36 28-3.20 28.45-2.88L28.45-1.97C28.08-1.54 27.54-1.04 26.59-1.04ZM38.35-7.20L36.90-7.20L35.23-2.64C35.10-2.26 34.99-1.89 34.90-1.54C34.75-1.90 34.62-2.26 34.46-2.62L32.35-7.20L30.82-7.20L34.27 0L34.11 0.38C33.63 1.54 33.18 2.02 32.58 2.02C32.29 2.02 32.02 1.89 31.78 1.78L31.36 2.75C31.74 3.01 32.18 3.20 32.72 3.20C33.74 3.20 34.42 2.58 35.47 0ZM43.31-1.95C43.31-1.30 42.70-0.96 42.03-0.96C41.31-0.96 40.37-1.39 39.95-1.87L39.23-0.96C39.57-0.45 40.72 0.16 41.89 0.16C43.33 0.16 44.67-0.50 44.67-2.02C44.67-4.54 40.78-3.82 40.78-5.34C40.78-5.82 41.22-6.24 41.94-6.24C42.69-6.24 43.31-5.92 43.74-5.54L44.35-6.51C43.92-6.93 43.06-7.36 41.87-7.36C40.45-7.36 39.42-6.59 39.42-5.33C39.42-2.69 43.31-3.41 43.31-1.95ZM50.14-0.67C50.83-0.18 51.94 0.16 53.09 0.16C55.50 0.16 57.09-1.34 57.09-3.71C57.09-5.84 55.81-7.36 53.66-7.36C52.80-7.36 51.94-6.98 51.42-6.51L51.42-11.20L50.14-11.20ZM53.38-6.16C54.77-6.16 55.73-5.23 55.73-3.62C55.73-2 54.61-1.04 53.15-1.04C52.53-1.04 52.00-1.15 51.42-1.54L51.42-5.23C51.78-5.68 52.54-6.16 53.38-6.16ZM64.61-1.79C64.14-1.36 63.33-1.04 62.40-1.04C60.99-1.04 60-1.84 59.89-3.20L65.42-3.20C65.47-3.42 65.50-3.71 65.50-4.06C65.50-6.05 64.02-7.36 62.16-7.36C59.79-7.36 58.45-5.70 58.45-3.60C58.45-1.33 59.97 0.16 62.30 0.16C63.26 0.16 64.30-0.14 65.01-0.78ZM62.10-6.16C63.34-6.16 64.11-5.42 64.18-4.24L59.81-4.24C59.95-5.34 60.78-6.16 62.10-6.16ZM77.23-7.20L75.94-7.20L74.62-2.74C74.51-2.37 74.42-2 74.34-1.63C74.22-1.98 74.13-2.34 74-2.67L72.35-7.20L71.25-7.20L69.62-2.66C69.47-2.26 69.41-1.97 69.31-1.65C69.22-1.98 69.15-2.30 69.04-2.66L67.63-7.20L66.26-7.20L68.64 0.06L69.70 0.06L71.44-4.58C71.57-4.88 71.65-5.17 71.74-5.50C71.82-5.20 71.90-4.91 72.02-4.62L73.81 0.06L74.93 0.06ZM84.13-1.79C83.66-1.36 82.85-1.04 81.92-1.04C80.51-1.04 79.52-1.84 79.41-3.20L84.94-3.20C84.99-3.42 85.02-3.71 85.02-4.06C85.02-6.05 83.54-7.36 81.68-7.36C79.31-7.36 77.97-5.70 77.97-3.60C77.97-1.33 79.49 0.16 81.82 0.16C82.78 0.16 83.82-0.14 84.53-0.78ZM81.62-6.16C82.86-6.16 83.63-5.42 83.70-4.24L79.33-4.24C79.47-5.34 80.30-6.16 81.62-6.16ZM92.35-1.79C91.89-1.36 91.07-1.04 90.14-1.04C88.74-1.04 87.74-1.84 87.63-3.20L93.17-3.20C93.22-3.42 93.25-3.71 93.25-4.06C93.25-6.05 91.76-7.36 89.90-7.36C87.54-7.36 86.19-5.70 86.19-3.60C86.19-1.33 87.71 0.16 90.05 0.16C91.01 0.16 92.05-0.14 92.75-0.78ZM89.84-6.16C91.09-6.16 91.86-5.42 91.92-4.24L87.55-4.24C87.70-5.34 88.53-6.16 89.84-6.16ZM94.99 0L96.27 0L96.27-5.20C96.74-5.73 97.49-6.13 98.30-6.13C99.65-6.13 100.34-5.42 100.34-3.92L100.34 0L101.62 0L101.62-4.16C101.62-6.42 100.50-7.33 98.62-7.33C97.68-7.33 96.77-6.86 96.27-6.32L96.27-7.20L94.99-7.20ZM107.22-2.74C107.22-0.90 107.86 0.13 109.47 0.13C110.27 0.13 110.93-0.16 111.31-0.48L110.91-1.47C110.66-1.28 110.27-1.07 109.78-1.07C108.86-1.07 108.50-1.73 108.50-2.86L108.50-6L111.14-6L111.14-7.20L108.50-7.20L108.50-9.20L107.22-9.20ZM112.26-3.60C112.26-1.44 113.79 0.16 116.10 0.16C118.40 0.16 119.94-1.44 119.94-3.60C119.94-5.76 118.40-7.36 116.10-7.36C113.79-7.36 112.26-5.76 112.26-3.60ZM113.62-3.60C113.62-5.12 114.69-6.16 116.10-6.16C117.54-6.16 118.58-5.10 118.58-3.60C118.58-2.06 117.54-1.04 116.10-1.04C114.66-1.04 113.62-2.10 113.62-3.60ZM131.66-7.20L130.37-7.20L129.06-2.74C128.94-2.37 128.85-2 128.77-1.63C128.66-1.98 128.56-2.34 128.43-2.67L126.78-7.20L125.68-7.20L124.05-2.66C123.90-2.26 123.84-1.97 123.74-1.65C123.65-1.98 123.58-2.30 123.47-2.66L122.06-7.20L120.69-7.20L123.07 0.06L124.13 0.06L125.87-4.58C126.00-4.88 126.08-5.17 126.18-5.50C126.26-5.20 126.34-4.91 126.45-4.62L128.24 0.06L129.36 0.06ZM138.56-1.79C138.10-1.36 137.28-1.04 136.35-1.04C134.94-1.04 133.95-1.84 133.84-3.20L139.38-3.20C139.42-3.42 139.46-3.71 139.46-4.06C139.46-6.05 137.97-7.36 136.11-7.36C133.74-7.36 132.40-5.70 132.40-3.60C132.40-1.33 133.92 0.16 136.26 0.16C137.22 0.16 138.26-0.14 138.96-0.78ZM136.05-6.16C137.30-6.16 138.06-5.42 138.13-4.24L133.76-4.24C133.90-5.34 134.74-6.16 136.05-6.16ZM141.20 0L142.48 0L142.48-5.10C142.75-5.63 143.15-6.13 143.98-6.13C144.42-6.13 144.61-6.06 144.96-5.86L145.41-7.06C145.17-7.23 144.88-7.33 144.29-7.33C143.38-7.33 142.85-6.90 142.48-6.35L142.48-7.20L141.20-7.20ZM150.29-1.95C150.29-1.30 149.68-0.96 149.01-0.96C148.29-0.96 147.34-1.39 146.93-1.87L146.21-0.96C146.54-0.45 147.70 0.16 148.86 0.16C150.30 0.16 151.65-0.50 151.65-2.02C151.65-4.54 147.76-3.82 147.76-5.34C147.76-5.82 148.19-6.24 148.91-6.24C149.66-6.24 150.29-5.92 150.72-5.54L151.33-6.51C150.90-6.93 150.03-7.36 148.85-7.36C147.42-7.36 146.40-6.59 146.40-5.33C146.40-2.69 150.29-3.41 150.29-1.95Z"
          fill="#000000" fontsize="16" transform="matrix(1,0,0,1,71.36,306)"></path>
    <path xmlns="http://www.w3.org/2000/svg" id="SvgjsPath2528978"
          d="M3.10-21.64L7.38-17.30L33.42-17.30L33.42-8.68L11.78-8.68L11.78-12.96L3.10-12.96L3.10-4.28L7.38 0L37.76 0L42.04-4.28L42.04-39.00L37.76-43.40L7.38-43.40L3.10-39.00ZM11.78-25.98L11.78-34.72L33.42-34.72L33.42-25.98ZM63.67 0L63.67-43.40L46.38-43.40L46.38-34.72L55.06-34.72L55.06 0ZM85.31 0L85.31-43.40L68.01-43.40L68.01-34.72L76.69-34.72L76.69 0ZM150.97 0L155.25-4.28L155.25-12.96L146.63-12.96L146.63-8.68L124.99-8.68L124.99-34.72L146.63-34.72L146.63-30.38L155.25-30.38L155.25-39.00L150.97-43.40L120.59-43.40L116.31-39.00L116.31-4.28L120.59 0ZM169.51 0L169.51-43.40L160.83-43.40L160.83 0ZM214.64 0L214.64-43.40L206.03-43.40L206.03-14.51L184.39-43.40L175.71-43.40L175.71 0L184.39 0L184.39-28.95L206.03 0ZM257.67 0L257.67-8.68L229.52-8.68L229.52-17.30L255.50-17.30L255.50-25.98L229.52-25.98L229.52-34.72L257.67-34.72L257.67-43.40L220.84-43.40L220.84 0ZM271.93 0L271.93-29.26L283.53-12.59L290.78-12.59L302.13-29.26L302.13 0L310.81 0L310.81-43.40L302.44-43.40L287.06-22.38L271.93-43.40L263.25-43.40L263.25 0ZM325.07-21.64L325.07-25.98L333.68-34.72L346.70-34.72L346.70-21.64ZM325.07 0L325.07-12.96L346.70-12.96L346.70 0L355.32 0L355.32-43.40L329.34-43.40L316.39-30.32L316.39 0Z"
          fill="#000000" fontsize="62" transform="matrix(1,0,0,1,90.29000000000002,258.2)"></path>
</svg>
